<mxfile host="app.diagrams.net" modified="2023-04-19T08:45:17.170Z" agent="Mozilla/5.0 (Windows NT 10.0; Win64; x64) AppleWebKit/537.36 (KHTML, like Gecko) Chrome/111.0.0.0 Safari/537.36" etag="W-LeAB8zGtxfszEVXc9O" version="21.1.8" type="github">
  <diagram id="C5RBs43oDa-KdzZeNtuy" name="Page-1">
    <mxGraphModel dx="1434" dy="764" grid="1" gridSize="10" guides="1" tooltips="1" connect="1" arrows="1" fold="1" page="1" pageScale="1" pageWidth="827" pageHeight="1169" math="0" shadow="0">
      <root>
        <mxCell id="WIyWlLk6GJQsqaUBKTNV-0" />
        <mxCell id="WIyWlLk6GJQsqaUBKTNV-1" parent="WIyWlLk6GJQsqaUBKTNV-0" />
        <mxCell id="WIyWlLk6GJQsqaUBKTNV-2" value="" style="rounded=0;html=1;jettySize=auto;orthogonalLoop=1;fontSize=11;endArrow=block;endFill=0;endSize=8;strokeWidth=1;shadow=0;labelBackgroundColor=none;edgeStyle=orthogonalEdgeStyle;" parent="WIyWlLk6GJQsqaUBKTNV-1" source="WIyWlLk6GJQsqaUBKTNV-3" target="WIyWlLk6GJQsqaUBKTNV-6" edge="1">
          <mxGeometry relative="1" as="geometry" />
        </mxCell>
        <mxCell id="WIyWlLk6GJQsqaUBKTNV-3" value="新增剔除数据" style="rounded=1;whiteSpace=wrap;html=1;fontSize=12;glass=0;strokeWidth=1;shadow=0;" parent="WIyWlLk6GJQsqaUBKTNV-1" vertex="1">
          <mxGeometry x="160" y="80" width="120" height="40" as="geometry" />
        </mxCell>
        <mxCell id="WIyWlLk6GJQsqaUBKTNV-5" value="No" style="edgeStyle=orthogonalEdgeStyle;rounded=0;html=1;jettySize=auto;orthogonalLoop=1;fontSize=11;endArrow=block;endFill=0;endSize=8;strokeWidth=1;shadow=0;labelBackgroundColor=none;" parent="WIyWlLk6GJQsqaUBKTNV-1" source="WIyWlLk6GJQsqaUBKTNV-6" target="WIyWlLk6GJQsqaUBKTNV-7" edge="1">
          <mxGeometry y="10" relative="1" as="geometry">
            <mxPoint as="offset" />
          </mxGeometry>
        </mxCell>
        <mxCell id="zgJj5qttmOsaSFyRHrtK-1" value="" style="edgeStyle=orthogonalEdgeStyle;rounded=0;orthogonalLoop=1;jettySize=auto;html=1;" edge="1" parent="WIyWlLk6GJQsqaUBKTNV-1" source="WIyWlLk6GJQsqaUBKTNV-6">
          <mxGeometry relative="1" as="geometry">
            <mxPoint x="220" y="280" as="targetPoint" />
          </mxGeometry>
        </mxCell>
        <mxCell id="WIyWlLk6GJQsqaUBKTNV-6" value="是否成功" style="rhombus;whiteSpace=wrap;html=1;shadow=0;fontFamily=Helvetica;fontSize=12;align=center;strokeWidth=1;spacing=6;spacingTop=-4;" parent="WIyWlLk6GJQsqaUBKTNV-1" vertex="1">
          <mxGeometry x="170" y="170" width="100" height="80" as="geometry" />
        </mxCell>
        <mxCell id="WIyWlLk6GJQsqaUBKTNV-7" value="剔除失败" style="rounded=1;whiteSpace=wrap;html=1;fontSize=12;glass=0;strokeWidth=1;shadow=0;" parent="WIyWlLk6GJQsqaUBKTNV-1" vertex="1">
          <mxGeometry x="320" y="190" width="120" height="40" as="geometry" />
        </mxCell>
        <mxCell id="zgJj5qttmOsaSFyRHrtK-7" value="" style="edgeStyle=orthogonalEdgeStyle;rounded=0;orthogonalLoop=1;jettySize=auto;html=1;" edge="1" parent="WIyWlLk6GJQsqaUBKTNV-1" source="zgJj5qttmOsaSFyRHrtK-4" target="zgJj5qttmOsaSFyRHrtK-6">
          <mxGeometry relative="1" as="geometry" />
        </mxCell>
        <mxCell id="zgJj5qttmOsaSFyRHrtK-4" value="存储到表" style="rounded=1;whiteSpace=wrap;html=1;fontSize=12;glass=0;strokeWidth=1;shadow=0;" vertex="1" parent="WIyWlLk6GJQsqaUBKTNV-1">
          <mxGeometry x="160" y="280" width="120" height="40" as="geometry" />
        </mxCell>
        <mxCell id="zgJj5qttmOsaSFyRHrtK-5" value="Yes" style="text;strokeColor=none;align=center;fillColor=none;html=1;verticalAlign=middle;whiteSpace=wrap;rounded=0;" vertex="1" parent="WIyWlLk6GJQsqaUBKTNV-1">
          <mxGeometry x="220" y="250" width="60" height="30" as="geometry" />
        </mxCell>
        <mxCell id="zgJj5qttmOsaSFyRHrtK-6" value="存储到表" style="rounded=1;whiteSpace=wrap;html=1;fontSize=12;glass=0;strokeWidth=1;shadow=0;" vertex="1" parent="WIyWlLk6GJQsqaUBKTNV-1">
          <mxGeometry x="160" y="360" width="120" height="40" as="geometry" />
        </mxCell>
        <mxCell id="zgJj5qttmOsaSFyRHrtK-11" value="" style="edgeStyle=orthogonalEdgeStyle;rounded=0;orthogonalLoop=1;jettySize=auto;html=1;" edge="1" parent="WIyWlLk6GJQsqaUBKTNV-1" source="zgJj5qttmOsaSFyRHrtK-8" target="zgJj5qttmOsaSFyRHrtK-10">
          <mxGeometry relative="1" as="geometry" />
        </mxCell>
        <mxCell id="zgJj5qttmOsaSFyRHrtK-8" value="根据唯一id删除" style="rounded=1;whiteSpace=wrap;html=1;fontSize=12;glass=0;strokeWidth=1;shadow=0;" vertex="1" parent="WIyWlLk6GJQsqaUBKTNV-1">
          <mxGeometry x="160" y="470" width="120" height="40" as="geometry" />
        </mxCell>
        <mxCell id="zgJj5qttmOsaSFyRHrtK-17" value="" style="edgeStyle=orthogonalEdgeStyle;rounded=0;orthogonalLoop=1;jettySize=auto;html=1;" edge="1" parent="WIyWlLk6GJQsqaUBKTNV-1" source="zgJj5qttmOsaSFyRHrtK-10" target="zgJj5qttmOsaSFyRHrtK-13">
          <mxGeometry relative="1" as="geometry" />
        </mxCell>
        <mxCell id="zgJj5qttmOsaSFyRHrtK-18" value="" style="edgeStyle=orthogonalEdgeStyle;rounded=0;orthogonalLoop=1;jettySize=auto;html=1;" edge="1" parent="WIyWlLk6GJQsqaUBKTNV-1" source="zgJj5qttmOsaSFyRHrtK-10" target="zgJj5qttmOsaSFyRHrtK-16">
          <mxGeometry relative="1" as="geometry" />
        </mxCell>
        <mxCell id="zgJj5qttmOsaSFyRHrtK-10" value="是否成功" style="rhombus;whiteSpace=wrap;html=1;shadow=0;fontFamily=Helvetica;fontSize=12;align=center;strokeWidth=1;spacing=6;spacingTop=-4;" vertex="1" parent="WIyWlLk6GJQsqaUBKTNV-1">
          <mxGeometry x="170" y="560" width="100" height="80" as="geometry" />
        </mxCell>
        <mxCell id="zgJj5qttmOsaSFyRHrtK-13" value="删除数据" style="rounded=1;whiteSpace=wrap;html=1;fontSize=12;glass=0;strokeWidth=1;shadow=0;" vertex="1" parent="WIyWlLk6GJQsqaUBKTNV-1">
          <mxGeometry x="160" y="710" width="120" height="40" as="geometry" />
        </mxCell>
        <mxCell id="zgJj5qttmOsaSFyRHrtK-16" value="删除失败" style="rounded=1;whiteSpace=wrap;html=1;fontSize=12;glass=0;strokeWidth=1;shadow=0;" vertex="1" parent="WIyWlLk6GJQsqaUBKTNV-1">
          <mxGeometry x="330" y="580" width="120" height="40" as="geometry" />
        </mxCell>
        <mxCell id="zgJj5qttmOsaSFyRHrtK-20" value="是" style="text;strokeColor=none;align=center;fillColor=none;html=1;verticalAlign=middle;whiteSpace=wrap;rounded=0;" vertex="1" parent="WIyWlLk6GJQsqaUBKTNV-1">
          <mxGeometry x="220" y="660" width="60" height="30" as="geometry" />
        </mxCell>
        <mxCell id="zgJj5qttmOsaSFyRHrtK-21" value="否" style="text;strokeColor=none;align=center;fillColor=none;html=1;verticalAlign=middle;whiteSpace=wrap;rounded=0;" vertex="1" parent="WIyWlLk6GJQsqaUBKTNV-1">
          <mxGeometry x="270" y="569.5" width="60" height="30" as="geometry" />
        </mxCell>
        <mxCell id="zgJj5qttmOsaSFyRHrtK-22" value="" style="edgeStyle=orthogonalEdgeStyle;rounded=0;orthogonalLoop=1;jettySize=auto;html=1;" edge="1" parent="WIyWlLk6GJQsqaUBKTNV-1" source="zgJj5qttmOsaSFyRHrtK-23" target="zgJj5qttmOsaSFyRHrtK-26">
          <mxGeometry relative="1" as="geometry" />
        </mxCell>
        <mxCell id="zgJj5qttmOsaSFyRHrtK-23" value="准确性分析" style="rounded=1;whiteSpace=wrap;html=1;fontSize=12;glass=0;strokeWidth=1;shadow=0;" vertex="1" parent="WIyWlLk6GJQsqaUBKTNV-1">
          <mxGeometry x="410" y="690" width="120" height="40" as="geometry" />
        </mxCell>
        <mxCell id="zgJj5qttmOsaSFyRHrtK-24" value="" style="edgeStyle=orthogonalEdgeStyle;rounded=0;orthogonalLoop=1;jettySize=auto;html=1;" edge="1" parent="WIyWlLk6GJQsqaUBKTNV-1" source="zgJj5qttmOsaSFyRHrtK-26" target="zgJj5qttmOsaSFyRHrtK-27">
          <mxGeometry relative="1" as="geometry" />
        </mxCell>
        <mxCell id="zgJj5qttmOsaSFyRHrtK-26" value="查询剔除信息" style="rhombus;whiteSpace=wrap;html=1;shadow=0;fontFamily=Helvetica;fontSize=12;align=center;strokeWidth=1;spacing=6;spacingTop=-4;" vertex="1" parent="WIyWlLk6GJQsqaUBKTNV-1">
          <mxGeometry x="420" y="780" width="100" height="80" as="geometry" />
        </mxCell>
        <mxCell id="zgJj5qttmOsaSFyRHrtK-32" value="" style="edgeStyle=orthogonalEdgeStyle;rounded=0;orthogonalLoop=1;jettySize=auto;html=1;" edge="1" parent="WIyWlLk6GJQsqaUBKTNV-1" source="zgJj5qttmOsaSFyRHrtK-27" target="zgJj5qttmOsaSFyRHrtK-31">
          <mxGeometry relative="1" as="geometry" />
        </mxCell>
        <mxCell id="zgJj5qttmOsaSFyRHrtK-27" value="存在的index不参与计算" style="rounded=1;whiteSpace=wrap;html=1;fontSize=12;glass=0;strokeWidth=1;shadow=0;" vertex="1" parent="WIyWlLk6GJQsqaUBKTNV-1">
          <mxGeometry x="410" y="930" width="120" height="40" as="geometry" />
        </mxCell>
        <mxCell id="zgJj5qttmOsaSFyRHrtK-29" value="是" style="text;strokeColor=none;align=center;fillColor=none;html=1;verticalAlign=middle;whiteSpace=wrap;rounded=0;" vertex="1" parent="WIyWlLk6GJQsqaUBKTNV-1">
          <mxGeometry x="470" y="880" width="60" height="30" as="geometry" />
        </mxCell>
        <mxCell id="zgJj5qttmOsaSFyRHrtK-31" value="输出结果" style="rounded=1;whiteSpace=wrap;html=1;fontSize=12;glass=0;strokeWidth=1;shadow=0;" vertex="1" parent="WIyWlLk6GJQsqaUBKTNV-1">
          <mxGeometry x="410" y="1010" width="120" height="40" as="geometry" />
        </mxCell>
      </root>
    </mxGraphModel>
  </diagram>
</mxfile>
